<svg t="1586854504734" class="icon" viewBox="0 0 1024 1024" version="1.1" xmlns="http://www.w3.org/2000/svg" p-id="7423" width="200" height="200"><path d="M512.268258 96.920985c-228.860896 0-415.079015 186.21812-415.079015 415.079015 0 228.942806 186.21812 415.079015 415.079015 415.079015 228.859872 0 415.079015-186.21812 415.079015-415.079015-0.001024-228.860896-186.219143-415.079015-415.079015-415.079015z m0 781.353512c-201.946022 0-366.274497-164.329499-366.274497-366.274497s164.329499-366.274497 366.274497-366.274497 366.273473 164.329499 366.273473 366.274497-164.328475 366.274497-366.273473 366.274497z m0-439.562161c-13.458973 0-24.402259 10.94431-24.402259 24.402259v280.827172c0 13.538836 10.94431 24.402259 24.402259 24.402258 13.457949 0 24.401235-10.94431 24.401235-24.402258V463.195482c0-13.538836-10.94431-24.483146-24.401235-24.483146z m-48.804518-122.010271c0-26.996784 21.88862-48.804518 48.804518-48.804518 26.99576 0 48.803494 21.88862 48.803494 48.804518 0 26.914874-21.88862 48.804518-48.803494 48.804518-26.996784 0-48.804518-21.889644-48.804518-48.804518z" fill="" p-id="7424"></path></svg>