<svg t="1587794542919" class="icon" viewBox="0 0 1024 1024" version="1.1" xmlns="http://www.w3.org/2000/svg" p-id="2237" width="200" height="200"><path d="M673.463061 614.05533C772.77676 557.424983 840.625341 451.704134 840.625341 329.167374 840.625341 147.363039 693.256581 0 511.457966 0 329.653631 0 182.290592 147.363039 182.290592 329.167374c0 122.53676 67.731307 228.257609 167.156559 284.887956C177.827039 676.413497 52.31267 834.531397 37.899441 1024h73.111598c18.530682-204.687017 190.955978-365.665251 400.446927-365.665251 209.49238 0 381.910525 160.978235 400.446928 365.665251h73.105877c-14.413229-189.468603-139.927598-347.586503-311.54771-409.94467zM255.396469 329.167374c0-141.184715 114.871061-255.944223 256.061497-255.944223 141.184715 0 256.055777 114.759508 256.055777 255.944223s-114.871061 255.944223-256.055777 255.944224c-141.190436 0-256.061497-114.759508-256.061497-255.944224z m0 0" p-id="2238"></path></svg>