<svg t="1586854465255" class="icon" viewBox="0 0 1024 1024" version="1.1" xmlns="http://www.w3.org/2000/svg" p-id="6690" width="200" height="200"><path d="M438.857143 950.857143v-146.285714H73.142857a73.142857 73.142857 0 0 1-73.142857-73.142858V73.142857a73.142857 73.142857 0 0 1 73.142857-73.142857h877.714286a73.142857 73.142857 0 0 1 73.142857 73.142857v658.285714a73.142857 73.142857 0 0 1-73.142857 73.142858H585.142857v146.285714h182.857143a36.571429 36.571429 0 1 1 0 73.142857h-512a36.571429 36.571429 0 1 1 0-73.142857H438.857143zM73.142857 73.142857v658.285714h877.714286V73.142857H73.142857z m332.580572 320a146.285714 146.285714 0 1 1 212.553142 0A219.428571 219.428571 0 0 1 731.428571 585.142857a36.571429 36.571429 0 0 1-73.142857 0 146.285714 146.285714 0 1 0-292.571428 0 36.571429 36.571429 0 0 1-73.142857 0 219.428571 219.428571 0 0 1 113.152-192zM512 365.714286a73.142857 73.142857 0 1 0 0-146.285715 73.142857 73.142857 0 0 0 0 146.285715z" p-id="6691"></path></svg>